<svg width="308" height="72" viewBox="0 0 308 72" fill="none" xmlns="http://www.w3.org/2000/svg">
<path d="M66.33 33.61L49.95 0.849999L33.57 33.61L23.85 4H0L28.8 71.05L49.95 39.73L71.1 71.05L99.9 4H76.05L66.33 33.61ZM142.412 67H174.182V51.25H142.412V67ZM142.412 19.75H174.182V4H142.412V19.75ZM142.412 42.25H172.382V26.95H142.412V42.25ZM128.732 4V67H147.632V4H128.732ZM222.041 67H253.811V51.25H222.041V67ZM222.041 19.75H253.811V4H222.041V19.75ZM222.041 42.25H252.011V26.95H222.041V42.25ZM208.361 4V67H227.261V4H208.361ZM286.189 59.35C286.189 62.17 287.179 64.6 289.159 66.64C291.139 68.68 293.689 69.7 296.809 69.7C299.989 69.7 302.539 68.68 304.459 66.64C306.439 64.6 307.429 62.17 307.429 59.35C307.429 56.53 306.439 54.1 304.459 52.06C302.539 50.02 299.989 49 296.809 49C293.689 49 291.139 50.02 289.159 52.06C287.179 54.1 286.189 56.53 286.189 59.35ZM286.189 26.05C286.189 28.87 287.179 31.3 289.159 33.34C291.139 35.38 293.689 36.4 296.809 36.4C299.989 36.4 302.539 35.38 304.459 33.34C306.439 31.3 307.429 28.87 307.429 26.05C307.429 23.23 306.439 20.8 304.459 18.76C302.539 16.72 299.989 15.7 296.809 15.7C293.689 15.7 291.139 16.72 289.159 18.76C287.179 20.8 286.189 23.23 286.189 26.05Z" fill="black"/>
</svg>
