<svg width="60" height="60" viewBox="0 0 60 60" fill="none" xmlns="http://www.w3.org/2000/svg">
<rect width="60" height="60" rx="30" fill="black" fill-opacity="0.7"/>
<path fill-rule="evenodd" clip-rule="evenodd" d="M30.5 13C40.1585 13 48 20.8415 48 30.5C48 40.1585 40.1585 48 30.5 48C20.8415 48 13 40.1585 13 30.5C13 20.8415 20.8415 13 30.5 13ZM30.5 14.4583C39.3535 14.4583 46.5417 21.6465 46.5417 30.5C46.5417 39.3535 39.3535 46.5417 30.5 46.5417C21.6465 46.5417 14.4583 39.3535 14.4583 30.5C14.4583 21.6465 21.6465 14.4583 30.5 14.4583ZM38.1519 26.125L30.5 35.5167L22.8248 26.125L21.75 27.1138L30.5 37.7917L39.25 27.0948L38.1519 26.125Z" fill="white"/>
</svg>
